<svg xmlns="http://www.w3.org/2000/svg" xmlns:xlink="http://www.w3.org/1999/xlink" width="96" zoomAndPan="magnify" viewBox="0 0 72 54.75" height="73" preserveAspectRatio="xMidYMid meet" version="1.0"><defs><clipPath id="b3330886eb"><path d="M 3.117188 3.796875 L 71.214844 3.796875 L 71.214844 50.179688 L 3.117188 50.179688 Z M 3.117188 3.796875 " clip-rule="nonzero"/></clipPath><clipPath id="e8ab5d0dd3"><path d="M 5.441406 21.707031 L 22.378906 4.769531 C 23.179688 3.972656 24.382812 3.730469 25.425781 4.164062 C 26.46875 4.597656 27.152344 5.617188 27.152344 6.746094 C 27.152344 10.472656 30.171875 13.492188 33.898438 13.492188 L 63.695312 13.492188 C 65.675781 13.492188 67.574219 14.28125 68.972656 15.679688 C 70.375 17.082031 71.160156 18.980469 71.160156 20.960938 L 71.160156 33.015625 C 71.160156 34.996094 70.375 36.894531 68.972656 38.292969 C 67.574219 39.695312 65.675781 40.480469 63.695312 40.480469 L 33.898438 40.480469 C 30.171875 40.480469 27.152344 43.5 27.152344 47.226562 C 27.152344 48.359375 26.46875 49.378906 25.425781 49.808594 C 24.382812 50.242188 23.179688 50.003906 22.378906 49.203125 L 5.441406 32.265625 C 4.042969 30.867188 3.257812 28.96875 3.257812 26.988281 C 3.257812 25.007812 4.042969 23.109375 5.441406 21.707031 Z M 5.441406 21.707031 " clip-rule="nonzero"/></clipPath><clipPath id="6d67d788f6"><path d="M 0.117188 0.796875 L 68.214844 0.796875 L 68.214844 47.179688 L 0.117188 47.179688 Z M 0.117188 0.796875 " clip-rule="nonzero"/></clipPath><clipPath id="95131b9298"><path d="M 2.441406 18.707031 L 19.378906 1.769531 C 20.179688 0.972656 21.382812 0.730469 22.425781 1.164062 C 23.46875 1.597656 24.152344 2.617188 24.152344 3.746094 C 24.152344 7.472656 27.171875 10.492188 30.898438 10.492188 L 60.695312 10.492188 C 62.675781 10.492188 64.574219 11.28125 65.972656 12.679688 C 67.375 14.082031 68.160156 15.980469 68.160156 17.960938 L 68.160156 30.015625 C 68.160156 31.996094 67.375 33.894531 65.972656 35.292969 C 64.574219 36.695312 62.675781 37.480469 60.695312 37.480469 L 30.898438 37.480469 C 27.171875 37.480469 24.152344 40.5 24.152344 44.226562 C 24.152344 45.359375 23.46875 46.378906 22.425781 46.808594 C 21.382812 47.242188 20.179688 47.003906 19.378906 46.203125 L 2.441406 29.265625 C 1.042969 27.867188 0.257812 25.96875 0.257812 23.988281 C 0.257812 22.007812 1.042969 20.109375 2.441406 18.707031 Z M 2.441406 18.707031 " clip-rule="nonzero"/></clipPath><clipPath id="359f040639"><rect x="0" width="69" y="0" height="48"/></clipPath><clipPath id="654cd11682"><path d="M 3 3.371094 L 71.089844 3.371094 L 71.089844 50.589844 L 3 50.589844 Z M 3 3.371094 " clip-rule="nonzero"/></clipPath><clipPath id="68e7c8f859"><path d="M 5.449219 21.703125 L 22.382812 4.769531 C 23.179688 3.972656 24.382812 3.730469 25.425781 4.164062 C 26.472656 4.597656 27.152344 5.617188 27.152344 6.746094 C 27.152344 10.472656 30.171875 13.492188 33.898438 13.492188 L 63.6875 13.492188 C 65.667969 13.492188 67.566406 14.277344 68.96875 15.675781 C 70.367188 17.078125 71.152344 18.976562 71.152344 20.957031 L 71.152344 33.007812 C 71.152344 34.988281 70.367188 36.886719 68.96875 38.285156 C 67.566406 39.6875 65.667969 40.472656 63.6875 40.472656 L 33.898438 40.472656 C 30.171875 40.472656 27.152344 43.492188 27.152344 47.21875 C 27.152344 48.347656 26.472656 49.367188 25.425781 49.800781 C 24.382812 50.234375 23.179688 49.992188 22.382812 49.195312 L 5.449219 32.261719 C 4.046875 30.859375 3.261719 28.960938 3.261719 26.980469 C 3.261719 25.003906 4.046875 23.105469 5.449219 21.703125 Z M 5.449219 21.703125 " clip-rule="nonzero"/></clipPath></defs><g clip-path="url(#b3330886eb)"><g clip-path="url(#e8ab5d0dd3)"><g transform="matrix(1, 0, 0, 1, 3, 3)"><g clip-path="url(#359f040639)"><g clip-path="url(#6d67d788f6)"><g clip-path="url(#95131b9298)"><path fill="#fe5d41" d="M -2.835938 -3 L 68.214844 -3 L 68.214844 50.976562 L -2.835938 50.976562 Z M -2.835938 -3 " fill-opacity="1" fill-rule="nonzero"/></g></g></g></g></g></g><g clip-path="url(#654cd11682)"><g clip-path="url(#68e7c8f859)"><path fill="#fff7f1" d="M 11.78125 11.144531 L 18.117188 4.8125 L 22.339844 9.035156 L 16.007812 15.367188 Z M 20.230469 2.699219 L 20.269531 2.660156 C 22.089844 0.835938 24.191406 0.417969 26.570312 1.40625 C 28.949219 2.390625 30.136719 4.171875 30.136719 6.746094 C 30.136719 7.207031 30.21875 7.648438 30.378906 8.074219 L 24.792969 10.183594 C 24.375 9.078125 24.164062 7.933594 24.164062 6.746094 C 24.164062 6.832031 24.207031 6.890625 24.285156 6.921875 C 24.363281 6.957031 24.433594 6.941406 24.492188 6.882812 L 24.453125 6.921875 Z M 31.292969 9.457031 C 32.019531 10.15625 32.886719 10.503906 33.898438 10.503906 L 37.726562 10.503906 L 37.726562 16.476562 L 33.898438 16.476562 C 31.285156 16.476562 29.039062 15.574219 27.15625 13.761719 Z M 40.714844 10.503906 L 49.671875 10.503906 L 49.671875 16.476562 L 40.714844 16.476562 Z M 52.660156 10.503906 L 61.617188 10.503906 L 61.617188 16.476562 L 52.660156 16.476562 Z M 64.984375 10.585938 C 67.355469 10.882812 69.386719 11.875 71.078125 13.566406 C 72.457031 14.941406 73.375 16.578125 73.839844 18.46875 L 68.039062 19.890625 C 67.839844 19.078125 67.445312 18.378906 66.855469 17.789062 C 66.132812 17.066406 65.261719 16.640625 64.242188 16.511719 Z M 74.140625 22.164062 L 74.140625 31.125 L 68.167969 31.125 L 68.167969 22.164062 Z M 74.023438 34.566406 C 73.679688 36.832031 72.699219 38.777344 71.078125 40.398438 C 69.632812 41.84375 67.914062 42.78125 65.917969 43.21875 L 64.644531 37.382812 C 65.5 37.195312 66.238281 36.792969 66.855469 36.175781 C 67.550781 35.480469 67.972656 34.648438 68.117188 33.675781 Z M 62.292969 43.460938 L 53.332031 43.460938 L 53.332031 37.488281 L 62.292969 37.488281 Z M 50.34375 43.460938 L 41.386719 43.460938 L 41.386719 37.488281 L 50.34375 37.488281 Z M 38.398438 43.460938 L 33.898438 43.460938 C 33.03125 43.460938 32.257812 43.726562 31.578125 44.261719 L 27.886719 39.5625 C 29.648438 38.179688 31.652344 37.488281 33.898438 37.488281 L 38.398438 37.488281 Z M 30.527344 45.546875 C 30.269531 46.070312 30.136719 46.628906 30.136719 47.21875 C 30.136719 49.792969 28.949219 51.574219 26.570312 52.558594 C 24.734375 53.320312 22.976562 53.171875 21.292969 52.121094 L 24.460938 47.054688 C 24.402344 47.019531 24.34375 47.015625 24.285156 47.042969 C 24.207031 47.074219 24.164062 47.132812 24.164062 47.21875 C 24.164062 45.691406 24.503906 44.246094 25.179688 42.886719 Z M 18.59375 49.628906 L 12.257812 43.296875 L 16.484375 39.070312 L 22.816406 45.40625 Z M 10.148438 41.183594 L 3.8125 34.847656 L 8.035156 30.625 L 14.371094 36.960938 Z M 1.421875 31.742188 C 0.65625 30.25 0.277344 28.660156 0.277344 26.980469 C 0.277344 24.304688 1.171875 21.972656 2.964844 19.984375 L 7.402344 23.984375 C 6.632812 24.835938 6.25 25.835938 6.25 26.980469 C 6.25 27.703125 6.410156 28.382812 6.738281 29.023438 Z M 3.335938 19.59375 L 9.671875 13.257812 L 13.894531 17.480469 L 7.558594 23.816406 Z M 3.335938 19.59375 " fill-opacity="1" fill-rule="nonzero"/></g></g></svg>