<svg xmlns="http://www.w3.org/2000/svg" xmlns:xlink="http://www.w3.org/1999/xlink" width="414" zoomAndPan="magnify" viewBox="0 0 310.5 58.499998" height="78" preserveAspectRatio="xMidYMid meet" version="1.0"><defs><g/><clipPath id="ae94a9d585"><path d="M 1.066406 0 L 308.9375 0 L 308.9375 57.292969 L 1.066406 57.292969 Z M 1.066406 0 " clip-rule="nonzero"/></clipPath><clipPath id="27f4d3d9df"><path d="M 29.714844 0 L 280.199219 0 C 287.796875 0 295.082031 3.019531 300.453125 8.390625 C 305.828125 13.761719 308.84375 21.050781 308.84375 28.648438 C 308.84375 36.242188 305.828125 43.53125 300.453125 48.902344 C 295.082031 54.273438 287.796875 57.292969 280.199219 57.292969 L 29.714844 57.292969 C 22.117188 57.292969 14.832031 54.273438 9.457031 48.902344 C 4.085938 43.53125 1.066406 36.242188 1.066406 28.648438 C 1.066406 21.050781 4.085938 13.761719 9.457031 8.390625 C 14.832031 3.019531 22.117188 0 29.714844 0 Z M 29.714844 0 " clip-rule="nonzero"/></clipPath><clipPath id="5dca5e5ee5"><path d="M 0.0664062 0 L 307.9375 0 L 307.9375 57.292969 L 0.0664062 57.292969 Z M 0.0664062 0 " clip-rule="nonzero"/></clipPath><clipPath id="11cf210f15"><path d="M 28.714844 0 L 279.199219 0 C 286.796875 0 294.082031 3.019531 299.453125 8.390625 C 304.828125 13.761719 307.84375 21.050781 307.84375 28.648438 C 307.84375 36.242188 304.828125 43.53125 299.453125 48.902344 C 294.082031 54.273438 286.796875 57.292969 279.199219 57.292969 L 28.714844 57.292969 C 21.117188 57.292969 13.832031 54.273438 8.457031 48.902344 C 3.085938 43.53125 0.0664062 36.242188 0.0664062 28.648438 C 0.0664062 21.050781 3.085938 13.761719 8.457031 8.390625 C 13.832031 3.019531 21.117188 0 28.714844 0 Z M 28.714844 0 " clip-rule="nonzero"/></clipPath><clipPath id="cbc160a5c2"><rect x="0" width="308" y="0" height="58"/></clipPath><clipPath id="b80447a330"><path d="M 22.25 7.558594 L 64.429688 7.558594 L 64.429688 49.734375 L 22.25 49.734375 Z M 22.25 7.558594 " clip-rule="nonzero"/></clipPath><clipPath id="2d64e9ffff"><path d="M 43.339844 7.558594 C 31.691406 7.558594 22.25 17 22.25 28.648438 C 22.25 40.292969 31.691406 49.734375 43.339844 49.734375 C 54.988281 49.734375 64.429688 40.292969 64.429688 28.648438 C 64.429688 17 54.988281 7.558594 43.339844 7.558594 Z M 43.339844 7.558594 " clip-rule="nonzero"/></clipPath><clipPath id="1d42a087f2"><path d="M 0.25 0.558594 L 42.429688 0.558594 L 42.429688 42.734375 L 0.25 42.734375 Z M 0.25 0.558594 " clip-rule="nonzero"/></clipPath><clipPath id="fc29595036"><path d="M 21.339844 0.558594 C 9.691406 0.558594 0.25 10 0.25 21.648438 C 0.25 33.292969 9.691406 42.734375 21.339844 42.734375 C 32.988281 42.734375 42.429688 33.292969 42.429688 21.648438 C 42.429688 10 32.988281 0.558594 21.339844 0.558594 Z M 21.339844 0.558594 " clip-rule="nonzero"/></clipPath><clipPath id="3f541e9f4c"><rect x="0" width="43" y="0" height="43"/></clipPath><clipPath id="86f6c71c06"><path d="M 22.25 7.558594 L 64.417969 7.558594 L 64.417969 49.726562 L 22.25 49.726562 Z M 22.25 7.558594 " clip-rule="nonzero"/></clipPath><clipPath id="1bdcb671cc"><path d="M 43.335938 7.558594 C 31.691406 7.558594 22.25 16.996094 22.25 28.640625 C 22.25 40.285156 31.691406 49.726562 43.335938 49.726562 C 54.980469 49.726562 64.417969 40.285156 64.417969 28.640625 C 64.417969 16.996094 54.980469 7.558594 43.335938 7.558594 Z M 43.335938 7.558594 " clip-rule="nonzero"/></clipPath><clipPath id="d264c4dac8"><path d="M 133.867188 7.558594 L 176.042969 7.558594 L 176.042969 49.734375 L 133.867188 49.734375 Z M 133.867188 7.558594 " clip-rule="nonzero"/></clipPath><clipPath id="7dae21ff63"><path d="M 154.957031 7.558594 C 143.308594 7.558594 133.867188 17 133.867188 28.648438 C 133.867188 40.292969 143.308594 49.734375 154.957031 49.734375 C 166.601562 49.734375 176.042969 40.292969 176.042969 28.648438 C 176.042969 17 166.601562 7.558594 154.957031 7.558594 Z M 154.957031 7.558594 " clip-rule="nonzero"/></clipPath><clipPath id="c7a67e5f0b"><path d="M 0.867188 0.558594 L 43.042969 0.558594 L 43.042969 42.734375 L 0.867188 42.734375 Z M 0.867188 0.558594 " clip-rule="nonzero"/></clipPath><clipPath id="4ed185cb86"><path d="M 21.957031 0.558594 C 10.308594 0.558594 0.867188 10 0.867188 21.648438 C 0.867188 33.292969 10.308594 42.734375 21.957031 42.734375 C 33.601562 42.734375 43.042969 33.292969 43.042969 21.648438 C 43.042969 10 33.601562 0.558594 21.957031 0.558594 Z M 21.957031 0.558594 " clip-rule="nonzero"/></clipPath><clipPath id="d8b4ba1e5b"><rect x="0" width="44" y="0" height="43"/></clipPath><clipPath id="60a0d51d9b"><path d="M 133.867188 7.558594 L 176.035156 7.558594 L 176.035156 49.726562 L 133.867188 49.726562 Z M 133.867188 7.558594 " clip-rule="nonzero"/></clipPath><clipPath id="9c99d165ba"><path d="M 154.953125 7.558594 C 143.308594 7.558594 133.867188 16.996094 133.867188 28.640625 C 133.867188 40.285156 143.308594 49.726562 154.953125 49.726562 C 166.59375 49.726562 176.035156 40.285156 176.035156 28.640625 C 176.035156 16.996094 166.59375 7.558594 154.953125 7.558594 Z M 154.953125 7.558594 " clip-rule="nonzero"/></clipPath><clipPath id="316b3952ca"><path d="M 245.484375 8.8125 L 287.660156 8.8125 L 287.660156 50.988281 L 245.484375 50.988281 Z M 245.484375 8.8125 " clip-rule="nonzero"/></clipPath><clipPath id="ccfed202d3"><path d="M 266.574219 8.8125 C 254.925781 8.8125 245.484375 18.253906 245.484375 29.902344 C 245.484375 41.546875 254.925781 50.988281 266.574219 50.988281 C 278.21875 50.988281 287.660156 41.546875 287.660156 29.902344 C 287.660156 18.253906 278.21875 8.8125 266.574219 8.8125 Z M 266.574219 8.8125 " clip-rule="nonzero"/></clipPath><clipPath id="74874db338"><path d="M 0.484375 0.8125 L 42.660156 0.8125 L 42.660156 42.988281 L 0.484375 42.988281 Z M 0.484375 0.8125 " clip-rule="nonzero"/></clipPath><clipPath id="def2eaeb0e"><path d="M 21.574219 0.8125 C 9.925781 0.8125 0.484375 10.253906 0.484375 21.902344 C 0.484375 33.546875 9.925781 42.988281 21.574219 42.988281 C 33.21875 42.988281 42.660156 33.546875 42.660156 21.902344 C 42.660156 10.253906 33.21875 0.8125 21.574219 0.8125 Z M 21.574219 0.8125 " clip-rule="nonzero"/></clipPath><clipPath id="ac1df225b0"><rect x="0" width="43" y="0" height="43"/></clipPath><clipPath id="29b0e45e27"><path d="M 245.484375 8.8125 L 287.652344 8.8125 L 287.652344 50.980469 L 245.484375 50.980469 Z M 245.484375 8.8125 " clip-rule="nonzero"/></clipPath><clipPath id="e1f9df6031"><path d="M 266.566406 8.8125 C 254.925781 8.8125 245.484375 18.253906 245.484375 29.898438 C 245.484375 41.539062 254.925781 50.980469 266.566406 50.980469 C 278.210938 50.980469 287.652344 41.539062 287.652344 29.898438 C 287.652344 18.253906 278.210938 8.8125 266.566406 8.8125 Z M 266.566406 8.8125 " clip-rule="nonzero"/></clipPath></defs><g clip-path="url(#ae94a9d585)"><g clip-path="url(#27f4d3d9df)"><g transform="matrix(1, 0, 0, 1, 1, 0)"><g clip-path="url(#cbc160a5c2)"><g clip-path="url(#5dca5e5ee5)"><g clip-path="url(#11cf210f15)"><path fill="#fffccf" d="M 0.0664062 0 L 307.792969 0 L 307.792969 57.292969 L 0.0664062 57.292969 Z M 0.0664062 0 " fill-opacity="1" fill-rule="nonzero"/></g></g></g></g></g></g><g clip-path="url(#b80447a330)"><g clip-path="url(#2d64e9ffff)"><g transform="matrix(1, 0, 0, 1, 22, 7)"><g clip-path="url(#3f541e9f4c)"><g clip-path="url(#1d42a087f2)"><g clip-path="url(#fc29595036)"><path fill="#ffedda" d="M 0.25 0.558594 L 42.429688 0.558594 L 42.429688 42.734375 L 0.25 42.734375 Z M 0.25 0.558594 " fill-opacity="1" fill-rule="nonzero"/></g></g></g></g></g></g><g clip-path="url(#86f6c71c06)"><g clip-path="url(#1bdcb671cc)"><path stroke-linecap="butt" transform="matrix(0.743644, 0, 0, 0.743644, 22.251311, 7.558193)" fill="none" stroke-linejoin="miter" d="M 28.353118 0.000538472 C 12.694374 0.000538472 -0.0017634 12.691423 -0.0017634 28.350167 C -0.0017634 44.008911 12.694374 56.705048 28.353118 56.705048 C 44.011862 56.705048 56.702746 44.008911 56.702746 28.350167 C 56.702746 12.691423 44.011862 0.000538472 28.353118 0.000538472 Z M 28.353118 0.000538472 " stroke="#ff5756" stroke-width="8" stroke-opacity="1" stroke-miterlimit="4"/></g></g><g fill="#48332f" fill-opacity="1"><g transform="translate(38.577242, 33.585734)"><g><path d="M 8.5 -9.90625 L 8.5 0 L 2.953125 0 L 2.953125 -5.84375 L 1.625 -5.171875 L 0.171875 -7.921875 L 4.109375 -9.90625 Z M 8.5 -9.90625 "/></g></g></g><path stroke-linecap="butt" transform="matrix(0.743644, 0, 0, 0.743644, 64.427956, 28.785946)" fill="none" stroke-linejoin="miter" d="M 0.00232779 1.501253 L 93.376979 1.501253 " stroke="#ff5756" stroke-width="3" stroke-opacity="1" stroke-miterlimit="4"/><g clip-path="url(#d264c4dac8)"><g clip-path="url(#7dae21ff63)"><g transform="matrix(1, 0, 0, 1, 133, 7)"><g clip-path="url(#d8b4ba1e5b)"><g clip-path="url(#c7a67e5f0b)"><g clip-path="url(#4ed185cb86)"><path fill="#ffedda" d="M 0.867188 0.558594 L 43.042969 0.558594 L 43.042969 42.734375 L 0.867188 42.734375 Z M 0.867188 0.558594 " fill-opacity="1" fill-rule="nonzero"/></g></g></g></g></g></g><g clip-path="url(#60a0d51d9b)"><g clip-path="url(#9c99d165ba)"><path stroke-linecap="butt" transform="matrix(0.743644, 0, 0, 0.743644, 133.868054, 7.558193)" fill="none" stroke-linejoin="miter" d="M 28.353716 0.000538472 C 12.694972 0.000538472 -0.00116525 12.691423 -0.00116525 28.350167 C -0.00116525 44.008911 12.694972 56.705048 28.353716 56.705048 C 44.007207 56.705048 56.703344 44.008911 56.703344 28.350167 C 56.703344 12.691423 44.007207 0.000538472 28.353716 0.000538472 Z M 28.353716 0.000538472 " stroke="#ff5756" stroke-width="8" stroke-opacity="1" stroke-miterlimit="4"/></g></g><g fill="#48332f" fill-opacity="1"><g transform="translate(147.231018, 33.585734)"><g><path d="M 14.53125 -6.765625 C 14.53125 -5.984375 14.101562 -5.25 13.25 -4.5625 C 12.40625 -3.875 11.191406 -3.28125 9.609375 -2.78125 L 14.53125 -2.78125 L 14.53125 0 L 1.15625 0 L 1.15625 -2.78125 C 3.664062 -3.382812 5.597656 -3.953125 6.953125 -4.484375 C 8.304688 -5.023438 8.984375 -5.492188 8.984375 -5.890625 C 8.984375 -6.160156 8.8125 -6.367188 8.46875 -6.515625 C 8.125 -6.660156 7.640625 -6.734375 7.015625 -6.734375 C 6.285156 -6.734375 5.546875 -6.609375 4.796875 -6.359375 C 4.054688 -6.117188 3.359375 -5.769531 2.703125 -5.3125 L 0.59375 -7.921875 C 1.539062 -8.628906 2.625 -9.171875 3.84375 -9.546875 C 5.0625 -9.921875 6.3125 -10.109375 7.59375 -10.109375 C 9.8125 -10.109375 11.519531 -9.816406 12.71875 -9.234375 C 13.925781 -8.648438 14.53125 -7.828125 14.53125 -6.765625 Z M 14.53125 -6.765625 "/></g></g></g><path stroke-linecap="butt" transform="matrix(0.743644, 0, 0, 0.743644, 176.044696, 30.040845)" fill="none" stroke-linejoin="miter" d="M -0.00232306 1.499918 L 93.377581 1.499918 " stroke="#ff5756" stroke-width="3" stroke-opacity="1" stroke-miterlimit="4"/><g clip-path="url(#316b3952ca)"><g clip-path="url(#ccfed202d3)"><g transform="matrix(1, 0, 0, 1, 245, 8)"><g clip-path="url(#ac1df225b0)"><g clip-path="url(#74874db338)"><g clip-path="url(#def2eaeb0e)"><path fill="#ff5756" d="M 0.484375 0.8125 L 42.660156 0.8125 L 42.660156 42.988281 L 0.484375 42.988281 Z M 0.484375 0.8125 " fill-opacity="1" fill-rule="nonzero"/></g></g></g></g></g></g><g clip-path="url(#29b0e45e27)"><g clip-path="url(#e1f9df6031)"><path stroke-linecap="butt" transform="matrix(0.743644, 0, 0, 0.743644, 245.484794, 8.813092)" fill="none" stroke-linejoin="miter" d="M 28.349065 -0.000796071 C 12.695574 -0.000796071 -0.000563258 12.695341 -0.000563258 28.354085 C -0.000563258 44.007576 12.695574 56.703713 28.349065 56.703713 C 44.007809 56.703713 56.703946 44.007576 56.703946 28.354085 C 56.703946 12.695341 44.007809 -0.000796071 28.349065 -0.000796071 Z M 28.349065 -0.000796071 " stroke="#ffedda" stroke-width="8" stroke-opacity="1" stroke-miterlimit="4"/></g></g><g fill="#ffedda" fill-opacity="1"><g transform="translate(258.162211, 34.840633)"><g><path d="M 12.71875 -4.953125 C 13.78125 -5.140625 14.582031 -5.421875 15.125 -5.796875 C 15.675781 -6.171875 15.953125 -6.632812 15.953125 -7.1875 C 15.953125 -8.132812 15.265625 -8.859375 13.890625 -9.359375 C 12.515625 -9.859375 10.5625 -10.09375 8.03125 -10.0625 C 6.207031 -10.082031 4.648438 -9.851562 3.359375 -9.375 C 2.066406 -8.894531 1.144531 -8.210938 0.59375 -7.328125 L 4.65625 -6.375 C 4.894531 -6.664062 5.304688 -6.890625 5.890625 -7.046875 C 6.484375 -7.210938 7.195312 -7.296875 8.03125 -7.296875 C 8.863281 -7.296875 9.503906 -7.25 9.953125 -7.15625 C 10.398438 -7.070312 10.625 -6.945312 10.625 -6.78125 C 10.625 -6.632812 10.351562 -6.515625 9.8125 -6.421875 C 9.269531 -6.328125 8.503906 -6.269531 7.515625 -6.25 L 7.515625 -3.671875 C 8.503906 -3.648438 9.269531 -3.585938 9.8125 -3.484375 C 10.351562 -3.390625 10.625 -3.269531 10.625 -3.125 C 10.625 -2.957031 10.398438 -2.828125 9.953125 -2.734375 C 9.503906 -2.648438 8.863281 -2.609375 8.03125 -2.609375 C 7.195312 -2.609375 6.484375 -2.6875 5.890625 -2.84375 C 5.304688 -3.007812 4.894531 -3.238281 4.65625 -3.53125 L 0.59375 -2.578125 C 1.144531 -1.691406 2.066406 -1.007812 3.359375 -0.53125 C 4.648438 -0.0625 6.207031 0.164062 8.03125 0.15625 C 10.5625 0.164062 12.515625 -0.0703125 13.890625 -0.5625 C 15.265625 -1.0625 15.953125 -1.78125 15.953125 -2.71875 C 15.953125 -3.269531 15.675781 -3.738281 15.125 -4.125 C 14.582031 -4.507812 13.78125 -4.785156 12.71875 -4.953125 Z M 12.71875 -4.953125 "/></g></g></g></svg>