<svg xmlns="http://www.w3.org/2000/svg" xmlns:xlink="http://www.w3.org/1999/xlink" width="390" zoomAndPan="magnify" viewBox="0 0 292.5 58.499998" height="78" preserveAspectRatio="xMidYMid meet" version="1.0"><defs><g/><clipPath id="340ac05e6b"><path d="M 0.992188 0 L 290.367188 0 L 290.367188 57.292969 L 0.992188 57.292969 Z M 0.992188 0 " clip-rule="nonzero"/></clipPath><clipPath id="8d643a16ce"><path d="M 29.636719 0 L 261.644531 0 C 269.242188 0 276.53125 3.019531 281.902344 8.390625 C 287.273438 13.761719 290.292969 21.050781 290.292969 28.648438 C 290.292969 36.242188 287.273438 43.53125 281.902344 48.902344 C 276.53125 54.273438 269.242188 57.292969 261.644531 57.292969 L 29.636719 57.292969 C 22.039062 57.292969 14.753906 54.273438 9.382812 48.902344 C 4.007812 43.53125 0.992188 36.242188 0.992188 28.648438 C 0.992188 21.050781 4.007812 13.761719 9.382812 8.390625 C 14.753906 3.019531 22.039062 0 29.636719 0 Z M 29.636719 0 " clip-rule="nonzero"/></clipPath><clipPath id="ad5329f5da"><path d="M 0.992188 0 L 290.359375 0 L 290.359375 57.292969 L 0.992188 57.292969 Z M 0.992188 0 " clip-rule="nonzero"/></clipPath><clipPath id="db35696ff5"><path d="M 29.636719 0 L 261.644531 0 C 269.242188 0 276.53125 3.019531 281.902344 8.390625 C 287.273438 13.761719 290.292969 21.050781 290.292969 28.648438 C 290.292969 36.242188 287.273438 43.53125 281.902344 48.902344 C 276.53125 54.273438 269.242188 57.292969 261.644531 57.292969 L 29.636719 57.292969 C 22.039062 57.292969 14.753906 54.273438 9.382812 48.902344 C 4.007812 43.53125 0.992188 36.242188 0.992188 28.648438 C 0.992188 21.050781 4.007812 13.761719 9.382812 8.390625 C 14.753906 3.019531 22.039062 0 29.636719 0 Z M 29.636719 0 " clip-rule="nonzero"/></clipPath><clipPath id="cc3c690826"><rect x="0" width="291" y="0" height="58"/></clipPath><clipPath id="0074792580"><path d="M 12.359375 7.558594 L 54.535156 7.558594 L 54.535156 49.734375 L 12.359375 49.734375 Z M 12.359375 7.558594 " clip-rule="nonzero"/></clipPath><clipPath id="b31441cdc1"><path d="M 33.449219 7.558594 C 21.800781 7.558594 12.359375 17 12.359375 28.648438 C 12.359375 40.292969 21.800781 49.734375 33.449219 49.734375 C 45.09375 49.734375 54.535156 40.292969 54.535156 28.648438 C 54.535156 17 45.09375 7.558594 33.449219 7.558594 Z M 33.449219 7.558594 " clip-rule="nonzero"/></clipPath><clipPath id="b066686108"><path d="M 0.359375 0.558594 L 42.535156 0.558594 L 42.535156 42.734375 L 0.359375 42.734375 Z M 0.359375 0.558594 " clip-rule="nonzero"/></clipPath><clipPath id="f332d15bc4"><path d="M 21.449219 0.558594 C 9.800781 0.558594 0.359375 10 0.359375 21.648438 C 0.359375 33.292969 9.800781 42.734375 21.449219 42.734375 C 33.09375 42.734375 42.535156 33.292969 42.535156 21.648438 C 42.535156 10 33.09375 0.558594 21.449219 0.558594 Z M 21.449219 0.558594 " clip-rule="nonzero"/></clipPath><clipPath id="e8830a1353"><rect x="0" width="43" y="0" height="43"/></clipPath><clipPath id="b4e75c5eaf"><path d="M 12.359375 7.558594 L 54.527344 7.558594 L 54.527344 49.726562 L 12.359375 49.726562 Z M 12.359375 7.558594 " clip-rule="nonzero"/></clipPath><clipPath id="071ff5328f"><path d="M 33.441406 7.558594 C 21.796875 7.558594 12.359375 16.996094 12.359375 28.640625 C 12.359375 40.285156 21.796875 49.726562 33.441406 49.726562 C 45.085938 49.726562 54.527344 40.285156 54.527344 28.640625 C 54.527344 16.996094 45.085938 7.558594 33.441406 7.558594 Z M 33.441406 7.558594 " clip-rule="nonzero"/></clipPath><clipPath id="1ca7d96ca7"><path d="M 123.976562 7.558594 L 166.152344 7.558594 L 166.152344 49.734375 L 123.976562 49.734375 Z M 123.976562 7.558594 " clip-rule="nonzero"/></clipPath><clipPath id="f5a96ff1b2"><path d="M 145.0625 7.558594 C 133.417969 7.558594 123.976562 17 123.976562 28.648438 C 123.976562 40.292969 133.417969 49.734375 145.0625 49.734375 C 156.710938 49.734375 166.152344 40.292969 166.152344 28.648438 C 166.152344 17 156.710938 7.558594 145.0625 7.558594 Z M 145.0625 7.558594 " clip-rule="nonzero"/></clipPath><clipPath id="14b633a82c"><path d="M 0.976562 0.558594 L 43.152344 0.558594 L 43.152344 42.734375 L 0.976562 42.734375 Z M 0.976562 0.558594 " clip-rule="nonzero"/></clipPath><clipPath id="683842fbfd"><path d="M 22.0625 0.558594 C 10.417969 0.558594 0.976562 10 0.976562 21.648438 C 0.976562 33.292969 10.417969 42.734375 22.0625 42.734375 C 33.710938 42.734375 43.152344 33.292969 43.152344 21.648438 C 43.152344 10 33.710938 0.558594 22.0625 0.558594 Z M 22.0625 0.558594 " clip-rule="nonzero"/></clipPath><clipPath id="a9f04e6259"><rect x="0" width="44" y="0" height="43"/></clipPath><clipPath id="a53fd8cc2c"><path d="M 123.976562 7.558594 L 166.144531 7.558594 L 166.144531 49.726562 L 123.976562 49.726562 Z M 123.976562 7.558594 " clip-rule="nonzero"/></clipPath><clipPath id="a82f34049b"><path d="M 145.058594 7.558594 C 133.414062 7.558594 123.976562 16.996094 123.976562 28.640625 C 123.976562 40.285156 133.414062 49.726562 145.058594 49.726562 C 156.703125 49.726562 166.144531 40.285156 166.144531 28.640625 C 166.144531 16.996094 156.703125 7.558594 145.058594 7.558594 Z M 145.058594 7.558594 " clip-rule="nonzero"/></clipPath><clipPath id="12c34ba63f"><path d="M 235.59375 7.558594 L 277.769531 7.558594 L 277.769531 49.734375 L 235.59375 49.734375 Z M 235.59375 7.558594 " clip-rule="nonzero"/></clipPath><clipPath id="68b22bd59a"><path d="M 256.679688 7.558594 C 245.035156 7.558594 235.59375 17 235.59375 28.648438 C 235.59375 40.292969 245.035156 49.734375 256.679688 49.734375 C 268.328125 49.734375 277.769531 40.292969 277.769531 28.648438 C 277.769531 17 268.328125 7.558594 256.679688 7.558594 Z M 256.679688 7.558594 " clip-rule="nonzero"/></clipPath><clipPath id="89f78b80fd"><path d="M 0.59375 0.558594 L 42.769531 0.558594 L 42.769531 42.734375 L 0.59375 42.734375 Z M 0.59375 0.558594 " clip-rule="nonzero"/></clipPath><clipPath id="cf387997be"><path d="M 21.679688 0.558594 C 10.035156 0.558594 0.59375 10 0.59375 21.648438 C 0.59375 33.292969 10.035156 42.734375 21.679688 42.734375 C 33.328125 42.734375 42.769531 33.292969 42.769531 21.648438 C 42.769531 10 33.328125 0.558594 21.679688 0.558594 Z M 21.679688 0.558594 " clip-rule="nonzero"/></clipPath><clipPath id="edf6a78514"><rect x="0" width="43" y="0" height="43"/></clipPath><clipPath id="e369446abf"><path d="M 235.59375 7.558594 L 277.761719 7.558594 L 277.761719 49.726562 L 235.59375 49.726562 Z M 235.59375 7.558594 " clip-rule="nonzero"/></clipPath><clipPath id="fbe29e5b07"><path d="M 256.675781 7.558594 C 245.03125 7.558594 235.59375 16.996094 235.59375 28.640625 C 235.59375 40.285156 245.03125 49.726562 256.675781 49.726562 C 268.320312 49.726562 277.761719 40.285156 277.761719 28.640625 C 277.761719 16.996094 268.320312 7.558594 256.675781 7.558594 Z M 256.675781 7.558594 " clip-rule="nonzero"/></clipPath></defs><g clip-path="url(#340ac05e6b)"><g clip-path="url(#8d643a16ce)"><g transform="matrix(1, 0, 0, 1, 0.000000000000000111, 0)"><g clip-path="url(#cc3c690826)"><g clip-path="url(#ad5329f5da)"><g clip-path="url(#db35696ff5)"><path fill="#fffccf" d="M 0.992188 0 L 290.367188 0 L 290.367188 57.292969 L 0.992188 57.292969 Z M 0.992188 0 " fill-opacity="1" fill-rule="nonzero"/></g></g></g></g></g></g><g clip-path="url(#0074792580)"><g clip-path="url(#b31441cdc1)"><g transform="matrix(1, 0, 0, 1, 12, 7)"><g clip-path="url(#e8830a1353)"><g clip-path="url(#b066686108)"><g clip-path="url(#f332d15bc4)"><path fill="#ff5756" d="M 0.359375 0.558594 L 42.535156 0.558594 L 42.535156 42.734375 L 0.359375 42.734375 Z M 0.359375 0.558594 " fill-opacity="1" fill-rule="nonzero"/></g></g></g></g></g></g><g clip-path="url(#b4e75c5eaf)"><g clip-path="url(#071ff5328f)"><path stroke-linecap="butt" transform="matrix(0.743644, 0, 0, 0.743644, 12.359336, 7.558193)" fill="none" stroke-linejoin="miter" d="M 28.349681 0.000538472 C 12.690937 0.000538472 0.0000529932 12.691423 0.0000529932 28.350167 C 0.0000529932 44.008911 12.690937 56.705048 28.349681 56.705048 C 44.008425 56.705048 56.704562 44.008911 56.704562 28.350167 C 56.704562 12.691423 44.008425 0.000538472 28.349681 0.000538472 Z M 28.349681 0.000538472 " stroke="#ffedda" stroke-width="8" stroke-opacity="1" stroke-miterlimit="4"/></g></g><g fill="#ffedda" fill-opacity="1"><g transform="translate(29.661295, 33.585734)"><g><path d="M 6.734375 -9.90625 L 6.734375 0 L 2.359375 0 L 2.359375 -6.265625 L 1.265625 -5.734375 L 0.171875 -8.21875 L 3.265625 -9.90625 Z M 6.734375 -9.90625 "/></g></g></g><path stroke-linecap="butt" transform="matrix(0.743644, 0, 0, 0.743644, 54.535977, 28.785946)" fill="none" stroke-linejoin="miter" d="M -0.00110322 1.501253 L 93.378801 1.501253 " stroke="#ff5756" stroke-width="3" stroke-opacity="1" stroke-miterlimit="4"/><g clip-path="url(#1ca7d96ca7)"><g clip-path="url(#f5a96ff1b2)"><g transform="matrix(1, 0, 0, 1, 123, 7)"><g clip-path="url(#a9f04e6259)"><g clip-path="url(#14b633a82c)"><g clip-path="url(#683842fbfd)"><path fill="#ffedda" d="M 0.976562 0.558594 L 43.152344 0.558594 L 43.152344 42.734375 L 0.976562 42.734375 Z M 0.976562 0.558594 " fill-opacity="1" fill-rule="nonzero"/></g></g></g></g></g></g><g clip-path="url(#a53fd8cc2c)"><g clip-path="url(#a82f34049b)"><path stroke-linecap="butt" transform="matrix(0.743644, 0, 0, 0.743644, 123.976089, 7.558193)" fill="none" stroke-linejoin="miter" d="M 28.350266 0.000538472 C 12.691522 0.000538472 0.000637386 12.691423 0.000637386 28.350167 C 0.000637386 44.008911 12.691522 56.705048 28.350266 56.705048 C 44.00901 56.705048 56.705147 44.008911 56.705147 28.350167 C 56.705147 12.691423 44.00901 0.000538472 28.350266 0.000538472 Z M 28.350266 0.000538472 " stroke="#ff5756" stroke-width="8" stroke-opacity="1" stroke-miterlimit="4"/></g></g><g fill="#48332f" fill-opacity="1"><g transform="translate(138.896057, 33.585734)"><g><path d="M 11.5625 -6.765625 C 11.5625 -6.023438 11.222656 -5.296875 10.546875 -4.578125 C 9.867188 -3.867188 8.890625 -3.222656 7.609375 -2.640625 L 11.5625 -2.640625 L 11.5625 0 L 0.953125 0 L 0.953125 -2.640625 C 2.960938 -3.285156 4.503906 -3.90625 5.578125 -4.5 C 6.648438 -5.101562 7.1875 -5.640625 7.1875 -6.109375 C 7.1875 -6.410156 7.046875 -6.632812 6.765625 -6.78125 C 6.492188 -6.9375 6.109375 -7.015625 5.609375 -7.015625 C 5.035156 -7.015625 4.457031 -6.898438 3.875 -6.671875 C 3.289062 -6.441406 2.738281 -6.113281 2.21875 -5.6875 L 0.5 -7.984375 C 1.238281 -8.660156 2.085938 -9.179688 3.046875 -9.546875 C 4.015625 -9.910156 5.019531 -10.09375 6.0625 -10.09375 C 7.820312 -10.09375 9.175781 -9.800781 10.125 -9.21875 C 11.082031 -8.632812 11.5625 -7.816406 11.5625 -6.765625 Z M 11.5625 -6.765625 "/></g></g></g><path stroke-linecap="butt" transform="matrix(0.743644, 0, 0, 0.743644, 166.152731, 28.785946)" fill="none" stroke-linejoin="miter" d="M -0.000520428 1.501253 L 93.379383 1.501253 " stroke="#ff5756" stroke-width="3" stroke-opacity="1" stroke-miterlimit="4"/><g clip-path="url(#12c34ba63f)"><g clip-path="url(#68b22bd59a)"><g transform="matrix(1, 0, 0, 1, 235, 7)"><g clip-path="url(#edf6a78514)"><g clip-path="url(#89f78b80fd)"><g clip-path="url(#cf387997be)"><path fill="#ffedda" d="M 0.59375 0.558594 L 42.769531 0.558594 L 42.769531 42.734375 L 0.59375 42.734375 Z M 0.59375 0.558594 " fill-opacity="1" fill-rule="nonzero"/></g></g></g></g></g></g><g clip-path="url(#e369446abf)"><g clip-path="url(#fbe29e5b07)"><path stroke-linecap="butt" transform="matrix(0.743644, 0, 0, 0.743644, 235.592828, 7.558193)" fill="none" stroke-linejoin="miter" d="M 28.350868 0.000538472 C 12.692124 0.000538472 0.00123938 12.691423 0.00123938 28.350167 C 0.00123938 44.008911 12.692124 56.705048 28.350868 56.705048 C 44.009612 56.705048 56.705749 44.008911 56.705749 28.350167 C 56.705749 12.691423 44.009612 0.000538472 28.350868 0.000538472 Z M 28.350868 0.000538472 " stroke="#ff5756" stroke-width="8" stroke-opacity="1" stroke-miterlimit="4"/></g></g><g fill="#48332f" fill-opacity="1"><g transform="translate(250.013161, 33.585734)"><g><path d="M 10.09375 -4.9375 C 11.769531 -5.34375 12.609375 -6.09375 12.609375 -7.1875 C 12.609375 -8.132812 12.066406 -8.851562 10.984375 -9.34375 C 9.910156 -9.84375 8.375 -10.078125 6.375 -10.046875 C 4.9375 -10.054688 3.707031 -9.835938 2.6875 -9.390625 C 1.664062 -8.941406 0.9375 -8.3125 0.5 -7.5 L 3.703125 -6.484375 C 3.890625 -6.785156 4.21875 -7.019531 4.6875 -7.1875 C 5.15625 -7.351562 5.710938 -7.4375 6.359375 -7.4375 C 7.023438 -7.4375 7.535156 -7.378906 7.890625 -7.265625 C 8.242188 -7.160156 8.421875 -7.007812 8.421875 -6.8125 C 8.421875 -6.644531 8.203125 -6.507812 7.765625 -6.40625 C 7.328125 -6.300781 6.707031 -6.234375 5.90625 -6.203125 L 5.90625 -3.71875 C 6.707031 -3.695312 7.328125 -3.632812 7.765625 -3.53125 C 8.203125 -3.425781 8.421875 -3.28125 8.421875 -3.09375 C 8.421875 -2.894531 8.242188 -2.742188 7.890625 -2.640625 C 7.535156 -2.535156 7.023438 -2.484375 6.359375 -2.484375 C 5.710938 -2.484375 5.15625 -2.566406 4.6875 -2.734375 C 4.21875 -2.910156 3.890625 -3.140625 3.703125 -3.421875 L 0.5 -2.421875 C 0.9375 -1.597656 1.664062 -0.960938 2.6875 -0.515625 C 3.707031 -0.0664062 4.9375 0.148438 6.375 0.140625 C 8.375 0.148438 9.910156 -0.0859375 10.984375 -0.578125 C 12.066406 -1.078125 12.609375 -1.789062 12.609375 -2.71875 C 12.609375 -3.8125 11.769531 -4.550781 10.09375 -4.9375 Z M 10.09375 -4.9375 "/></g></g></g></svg>